<svg xmlns="http://www.w3.org/2000/svg" width="147" height="72.42"><defs><clipPath id="a"><path d="M0 56.69h141.73V0H0v56.69z"/></clipPath></defs><g transform="matrix(.8749 0 0 -.8749 11.494 61.015)"><path d="M0 0h141.73v56.69H0V0z" fill="#ffca00"/><g clip-path="url(#a)"><path d="M71.433 46.626c-1.23.746-2.955 1.125-5.184 1.125-2.123 0-3.97-.108-5.547-.32-.297-.04-.53-.11-.692-.215-.167-.11-.278-.276-.343-.5l-.433-2.124h6.085l.316 1.952 3.966-4.794-5.51-4.707.354 2.185h-6.3l-1.848-9.106v-.094c0-.116.04-.212.12-.28.083-.073.186-.11.314-.11h2.797c.147 0 .282.05.41.136.128.098.206.206.233.347l1.284 5.457c.1 0 .25-.006.456-.018.206-.012.42-.023.643-.03.224-.005.46-.018.717-.028.252-.012.475-.022.653-.022 1.55 0 2.934.164 4.153.486 1.214.324 2.263.897 3.148 1.727.87.826 1.512 2.806 1.89 4.272l.065.212c.054.2.086.48.086.846v.377c0 1.4-.616 2.475-1.837 3.226M78.552 31.48l.638 3.494h-1.765c-.937 0-1.595-.126-1.967-.38-.38-.257-.62-.72-.74-1.398-.03-.196-.043-.395-.043-.587 0-.458.17-.79.5-1.004.338-.216.895-.325 1.68-.325.69 0 1.25.067 1.697.2m-.584 8.523c-.64 0-1.258-.055-1.853-.173-.596-.115-1.23-.263-1.896-.436-.17-.047-.297-.07-.38-.07-.145 0-.212.077-.212.23 0 .1.024.287.067.564l.21 1.188c.012.1.032.188.075.26.033.073.093.134.173.185.078.05.2.106.368.17 1.39.453 2.81.68 4.26.68 1.356 0 2.39-.294 3.106-.876.715-.58 1.074-1.434 1.074-2.574 0-.368-.027-.723-.095-1.06l-1.424-8.05c-.032-.17-.074-.288-.12-.353-.054-.067-.15-.124-.3-.167-.573-.148-1.03-.26-1.38-.325-.35-.072-.788-.13-1.318-.187-.528-.052-1.143-.08-1.846-.08-3.317 0-4.97 1.1-4.97 3.3 0 .317.034.66.1 1.037.123.694.313 1.278.586 1.757.268.475.635.864 1.1 1.163.463.3 1.065.52 1.793.657.734.14 1.607.206 2.63.206h1.835c.168.94.253 1.49.253 1.65 0 .502-.145.844-.433 1.03-.296.183-.76.275-1.402.275M92.987 39.842c-.27.063-.602.11-.98.15-.38.04-.795.054-1.252.054-.637 0-1.162-.118-1.582-.358-.427-.245-.76-.61-1.01-1.1-.242-.486-.435-1.127-.567-1.915l-.314-1.813c-.107-.662-.16-1.156-.16-1.49 0-.643.154-1.12.478-1.43.32-.308.868-.46 1.633-.46.612 0 1.383.06 2.31.184l1.444 8.178zm-4.73-15.46c-.745 0-1.54.094-2.383.284-.83.19-1.535.42-2.105.685-.26.14-.387.298-.387.475v.153l.2 1.105c.04.27.155.403.347.403.096 0 .175-.007.217-.024.607-.15 1.288-.29 2.045-.402.76-.114 1.507-.174 2.242-.174.895 0 1.54.156 1.928.464.393.304.635.855.73 1.65l.025.183c-.83-.155-1.555-.23-2.162-.23-1.48 0-2.672.362-3.568 1.097-.904.728-1.356 1.852-1.356 3.366 0 .53.047 1.01.117 1.444l.32 1.813c.252 1.46.656 2.62 1.214 3.48.557.863 1.29 1.482 2.193 1.87.91.382 2.014.577 3.335.577.752 0 1.55-.06 2.412-.174.86-.113 1.61-.262 2.25-.436.2-.058.338-.114.42-.178.084-.06.13-.158.13-.298 0-.032-.007-.06-.007-.08-.008-.02-.014-.054-.02-.082L94.22 29.16c-.215-1.175-.535-2.104-.962-2.79-.422-.685-1.035-1.188-1.834-1.51-.8-.316-1.862-.477-3.166-.477M105.685 37.763c0 .715-.174 1.252-.517 1.613-.342.355-.86.535-1.558.535-.782 0-1.444-.25-1.986-.754-.54-.505-.914-1.317-1.125-2.438l-.362-1.905c-.06-.34-.09-.69-.09-1.05 0-1.43.692-2.146 2.084-2.146 1.676 0 2.704 1.064 3.103 3.196l.346 1.905c.07.323.105.672.105 1.045m3.16.187c0-.378-.04-.79-.12-1.232l-.354-1.905c-.74-3.925-2.972-5.885-6.708-5.885-1.02 0-1.886.215-2.608.647-.722.43-1.265 1-1.61 1.722-.357.712-.532 1.503-.532 2.372 0 .424.03.802.09 1.143l.36 1.905c.37 1.952 1.108 3.418 2.24 4.404 1.125.984 2.616 1.478 4.478 1.478 1.084 0 1.98-.206 2.697-.625.72-.416 1.244-.972 1.574-1.68.327-.702.495-1.485.495-2.345M65.69 26.512c0-.028-.004-.057-.013-.08 0-.02-.006-.054-.016-.094l-.265-1.51c-.023-.122-.09-.232-.21-.33-.114-.094-.234-.14-.354-.14h-4.85c-.698 0-1.21-.146-1.535-.437-.323-.284-.558-.82-.698-1.593l-.45-2.553h6.438c.12 0 .216-.04.294-.122.073-.086.115-.178.115-.28V19.302l-.312-1.692c-.026-.134-.098-.245-.213-.335-.113-.09-.235-.137-.357-.137H56.82l-.523-3.053c-.045-.304-.067-.564-.067-.78 0-.46.12-.783.364-.975.244-.186.655-.282 1.227-.282h4.85c.246 0 .373-.122.373-.37V11.574l-.257-1.51c-.038-.284-.23-.447-.568-.497-.18-.024-.398-.058-.662-.098-.265-.04-.642-.08-1.137-.123-.497-.035-.908-.06-1.228-.078-.332-.014-.845-.02-1.55-.02-1.42 0-2.565.3-3.425.903-.865.605-1.295 1.542-1.295 2.818 0 .393.03.762.09 1.115l1.455 8.244c.184 1.03.463 1.868.842 2.52.382.648.837 1.143 1.366 1.478.53.334 1.12.56 1.774.67.656.12 1.44.175 2.365.175 1.26 0 2.18-.028 2.764-.087.575-.055 1.142-.138 1.702-.248.27-.043.408-.158.408-.323M75.186 27.17v-.044l-.234-1.397c-.017-.127-.077-.227-.16-.295-.094-.07-.184-.11-.268-.11H73.46c-.41 0-.715-.035-.92-.113-.2-.068-.363-.21-.477-.413-.113-.204-.203-.504-.275-.893l-.21-1.154h2.272c.27 0 .41-.134.41-.404v-.074L74 20.86c-.017-.13-.084-.24-.19-.322-.104-.083-.226-.125-.35-.125h-2.287L69.2 9.286c-.188-1.052-.493-1.854-.916-2.413-.426-.556-.944-.92-1.558-1.102-.614-.173-1.38-.265-2.31-.265-.344 0-.8.062-1.39.184-.096.014-.174.053-.247.112-.08.055-.115.13-.115.222v.045l.23 1.396c.048.27.19.403.43.403h1.066c.577 0 .976.096 1.192.285.223.19.383.564.483 1.13l1.973 11.128-2.077.337c-.247.04-.374.17-.374.375v.07l.187 1.08c.027.138.086.257.188.344.098.088.218.133.363.133h2.11l.217 1.154c.16.832.376 1.498.65 2.008.284.504.616.885 1.005 1.137.393.248.838.418 1.33.504.492.087 1.096.135 1.8.135.325 0 .788-.062 1.398-.185.087-.008.168-.043.246-.106.07-.06.106-.136.106-.23M81.915 18.125c0 .687-.18 1.206-.53 1.563-.35.356-.86.538-1.523.538-1.697 0-2.724-1.003-3.087-3h5.038c.065.36.102.664.102.9m-3.688-8.88c-.785 0-1.482.094-2.09.296-.607.19-1.13.496-1.58.908-.447.404-.79.91-1.027 1.5-.226.586-.347 1.266-.347 2.03 0 .537.042 1.006.12 1.423l.265 1.466c.38 2.145 1.13 3.688 2.257 4.627 1.125.943 2.63 1.416 4.512 1.416 1.523 0 2.68-.443 3.473-1.334.794-.89 1.195-2.058 1.195-3.5 0-.4-.04-.85-.12-1.35l-.197-1.13c-.07-.4-.257-.6-.57-.6h-7.75c-.08-.543-.115-.86-.115-.97 0-.69.197-1.22.594-1.58.398-.36 1.096-.543 2.095-.543 1.21 0 2.606.248 4.2.74.048.016.12.022.223.022.157 0 .237-.08.237-.24 0-.066-.013-.118-.027-.164l-.268-1.508c-.027-.154-.076-.273-.152-.348-.08-.077-.228-.17-.465-.278-.414-.172-.837-.315-1.257-.434-.42-.117-.926-.224-1.516-.316-.59-.096-1.154-.135-1.69-.135M90.37 9.247c-.667 0-1.27.098-1.816.307-.543.21-1.032.52-1.452.94-.42.42-.74.904-.95 1.455-.218.55-.32 1.158-.32 1.828 0 .323.036.723.115 1.198l.41 2.206c.27 1.42.71 2.557 1.316 3.403.61.847 1.332 1.445 2.173 1.797.842.352 1.79.53 2.835.53 1.044 0 2.06-.25 3.038-.75.29-.15.43-.31.43-.473v-.074c-.007-.017-.012-.042-.018-.062l-.295-1.422c-.02-.268-.152-.405-.38-.405-.08 0-.14.012-.187.028-1.197.34-2.107.516-2.72.516-.834 0-1.51-.228-2.004-.683-.492-.46-.848-1.26-1.057-2.405l-.404-2.206c-.078-.498-.115-.885-.115-1.15 0-.67.168-1.16.513-1.474.337-.312.86-.465 1.577-.465.704 0 1.672.188 2.924.563.044.014.12.024.218.024.154 0 .234-.075.234-.23 0-.06-.004-.12-.023-.175l-.278-1.605c-.025-.15-.084-.275-.176-.36-.09-.083-.246-.163-.45-.25-.41-.176-.874-.324-1.41-.438-.53-.114-1.107-.17-1.726-.17M105.198 22.35v-.073l-.234-1.393c-.024-.125-.09-.234-.206-.328-.12-.1-.24-.143-.36-.143h-2.136l-1.314-7.42c-.075-.386-.113-.657-.113-.816 0-.202.053-.333.175-.4.114-.064.325-.1.625-.1h1.264c.28 0 .427-.094.427-.29v-.068l-.266-1.485c-.047-.242-.22-.386-.522-.43-.688-.107-1.234-.158-1.638-.158-1.083 0-1.89.2-2.43.61-.537.408-.805 1.066-.805 1.982 0 .294.04.675.112 1.152l1.313 7.42-2.18.338c-.257.02-.384.15-.384.4v.07l.188 1.057c.02.136.083.256.178.343.11.088.23.133.37.133h2.237l.36 1.937c.04.263.23.42.54.473l2.277.384h.11c.216 0 .323-.098.323-.29v-.07l-.458-2.434h2.148c.128 0 .222-.04.29-.11.073-.072.108-.173.108-.294M110.603 27.15v-.07l-.387-2.08c-.022-.14-.09-.255-.196-.34-.11-.09-.23-.13-.35-.13h-2.31c-.1 0-.206.035-.297.107-.084.075-.132.166-.132.28V25l.387 2.08c.024.12.092.232.21.326.113.095.234.143.354.143h2.314c.27 0 .408-.135.408-.4m-.932-4.802v-.072l-2.18-12.354c-.022-.126-.096-.244-.21-.345-.113-.102-.24-.15-.372-.15h-2.18c-.108 0-.2.04-.278.12-.07.08-.106.177-.106.288v.087l2.198 12.354c.02.137.082.256.19.343.1.088.218.133.35.133h2.182c.267 0 .406-.134.406-.405M122.86 22.439c0-.092-.013-.168-.04-.23l-4.9-10.75c-.37-.8-.843-1.37-1.433-1.71-.595-.334-1.232-.502-1.926-.502-1.57 0-2.423.732-2.56 2.212l-1.09 10.75v.044c0 .13.042.248.132.347.09.103.192.153.305.153h2.288c.246 0 .386-.16.41-.476l.516-9.897c.026-.39.147-.59.363-.59.192 0 .372.2.54.59l4.045 9.897c.114.317.307.476.565.476h2.475c.208 0 .312-.1.312-.314M130.425 18.08c0 .717-.174 1.25-.518 1.608-.342.356-.865.537-1.557.537-.784 0-1.446-.25-1.987-.755-.548-.502-.92-1.317-1.127-2.44l-.358-1.902c-.062-.34-.098-.692-.098-1.045 0-1.437.698-2.15 2.094-2.15 1.667 0 2.7 1.064 3.1 3.195l.342 1.903c.072.322.11.67.11 1.05m3.16.186c0-.376-.042-.792-.122-1.235l-.36-1.902c-.737-3.926-2.974-5.88-6.705-5.88-1.017 0-1.884.21-2.606.643-.723.43-1.264 1.007-1.613 1.718-.355.717-.528 1.508-.528 2.373 0 .425.03.808.09 1.148l.363 1.903c.365 1.954 1.103 3.425 2.23 4.406 1.13.985 2.625 1.477 4.49 1.477 1.075 0 1.97-.21 2.688-.625.717-.412 1.246-.973 1.572-1.676.33-.703.5-1.488.5-2.346" fill="#211915"/><path d="M52.42 29.39c-.23.747-.87 1.55-1.565 2.27.036-.02.07-.043.107-.067 0 0-12.367 12.24-31.332 18.822 0 0-3.338 1.457-5.81-1.188-.68-.73-1.13-2.088-1.42-3.288-.056-.196-.098-.39-.13-.56-.17-.778-.273-1.417-.336-1.653l.006.003c-1.09-5.48-3.01-18.585-.267-33.463 0 0 .625-3.942 4.1-4.344 2.04-.235 3.564.43 5.56 1.22 5.484 1.914 17.8 6.93 29.203 16.657 0 0 2.946 2.138 1.883 5.59" fill="#fff" fill-rule="evenodd"/><path d="M17.173 46.648s24.082-7.383 31.872-16.023c0 0-18.814-19.288-30.42-22.76 0 0-7.255 18.426-5.012 35.122 0 0 .354 4.76 3.56 3.66" fill="#ffca00" fill-rule="evenodd"/><path d="M19.315 8.09S34.68 12.265 48.553 24.1c0 0 2.68 1.943 1.713 5.088-.494 1.604-3.074 3.518-3.503 3.94 0 0 .35-9.93-27.448-25.04" fill="#e2ac00" fill-rule="evenodd"/><path d="M48.94 31.193S37.682 42.327 20.424 48.32c0 0-3.04 1.33-5.29-1.08-1.145-1.228-1.564-4.427-1.715-5.005 0 0 8.424 5.276 35.52-11.042" fill="#ffda80" fill-rule="evenodd"/><path d="M13.98 44.715s-4.095-15.06-.798-32.937c0 0 .57-3.59 3.73-3.953 1.937-.22 3.36.445 5.298 1.206 0 0-9.103 4.21-8.23 35.685" fill="#f1b800" fill-rule="evenodd"/><path d="M36.36 37.262c-1.566.96-3.773 1.44-6.624 1.44-2.712 0-5.073-.134-7.087-.405-.384-.053-.68-.143-.89-.28-.21-.135-.357-.347-.437-.64l-.553-2.713h7.78l.406 2.497 5.066-6.13-7.046-6.018.456 2.795H19.38L17.013 16.17v-.12c0-.153.05-.272.153-.362.107-.09.24-.14.404-.14h3.58c.185 0 .36.06.523.177.162.114.26.264.296.444l1.64 6.973c.128 0 .32-.008.584-.026.264-.014.535-.02.818-.032.286-.012.594-.026.92-.037.326-.016.604-.026.837-.026 1.976 0 3.744.208 5.304.617 1.557.413 2.9 1.145 4.022 2.206 1.123 1.06 1.93 3.59 2.418 5.465l.086.272c.07.25.105.61.105 1.082v.48c0 1.788-.78 3.163-2.345 4.118" fill="#1d1d1b"/></g><rect width="146.833" height="72.416" ry="0" x="-11.422" y="-11.263" transform="matrix(1.14298 0 0 -1.14298 .013 56.862)" fill="none"/></g></svg>